<?xml version="1.0" encoding="UTF-8"?>
<!DOCTYPE svg PUBLIC "-//W3C//DTD SVG 1.1//EN" "http://www.w3.org/Graphics/SVG/1.1/DTD/svg11.dtd">
<!-- Creator: CorelDRAW -->
<svg xmlns="http://www.w3.org/2000/svg" xml:space="preserve" width="8.25198in" height="2.72255in" version="1.1" style="shape-rendering:geometricPrecision; text-rendering:geometricPrecision; image-rendering:optimizeQuality; fill-rule:evenodd; clip-rule:evenodd"
viewBox="0 0 8203.93 2706.7"
 xmlns:xlink="http://www.w3.org/1999/xlink"
 xmlns:xodm="http://www.corel.com/coreldraw/odm/2003">
 <defs>
  <style type="text/css">
   <![CDATA[
    .fil1 {fill:none}
    .fil0 {fill:#152318;fill-rule:nonzero}
   ]]>
  </style>
 </defs>
 <g id="Layer_x0020_1">
  <metadata id="CorelCorpID_0Corel-Layer"/>
  <path class="fil0" d="M1054.73 721.06c20.51,-27.82 38.64,-48.73 54.24,-62.74 21.61,-19.43 44.11,-29.13 67.93,-29.13 16.77,0 30.89,5.75 42.33,17.21 11.48,11.48 22.51,24.7 32.66,40.13 10.15,15.46 21.63,29.12 34.42,40.59 12.78,11.48 28.67,17.21 48.06,17.21 25.6,0 45.45,-8.38 59.12,-25.16 13.68,-16.74 20.29,-38.81 20.29,-66.16 0,-37.06 -13.67,-67.49 -41.03,-91.32 -27.34,-23.82 -62.63,-35.72 -105.84,-35.72 -37.09,0 -72,9.34 -104.79,28.04l23.18 -35.11c6.74,-10.55 13.01,-21.02 18.83,-31.41 36.75,-31.96 67.08,-54.05 90.75,-66.34 25.74,-13.43 49.96,-17.24 73.02,-11.29 16.23,4.16 28.48,13.23 36.73,27.12 8.26,13.98 15.66,29.54 21.63,47.03 6,17.46 13.68,33.57 23.25,47.88 9.53,14.26 23.51,23.79 42.29,28.65 24.8,6.3 46.1,3.13 63.54,-9.7 17.43,-12.89 29.3,-32.54 36.08,-59.07 9.21,-35.9 3.54,-68.75 -17.03,-98.62 -20.59,-29.88 -51.8,-50.21 -93.64,-60.93 -46.15,-11.89 -92.73,-7.88 -139.73,11.97 -33.11,13.96 -66.14,33.78 -99.09,59.57 4.61,-13.62 8.36,-27.05 11.3,-40.37 10.92,-49.77 6.38,-96.34 -13.67,-139.52 -18.18,-39.25 -43.86,-66.25 -76.95,-81.07 -33.11,-14.75 -66.47,-14.33 -100.11,1.23 -24.8,11.5 -42.01,26.8 -51.47,46.26 -9.5,19.45 -8.72,41 2.03,64.2 8.2,17.62 20.06,29.6 35.85,36.39 15.79,6.77 33.03,11.43 51.29,14.12 18.26,2.74 34.94,7.16 50.13,12.71 15.23,5.62 26.37,16.01 33.47,31.23 9.98,21.6 10.64,46.1 2.16,73.85 -5.64,18.36 -33.23,73.02 -59.58,121.67l1.78 -9.68c8.41,-50.33 1.54,-96.56 -20.65,-138.72 -20.14,-38.24 -47.15,-63.89 -80.95,-77.03 -33.79,-13.1 -67.1,-11.04 -99.9,6.22 -24.22,12.74 -40.62,28.86 -49.11,48.77 -8.47,19.96 -6.64,41.41 5.28,64.05 9.07,17.17 21.52,28.56 37.63,34.54 16.11,5.97 33.57,9.75 51.94,11.52 18.4,1.81 35.23,5.39 50.74,10.19 15.46,4.82 27.11,14.64 34.93,29.49 11.08,21.07 12.99,45.47 5.89,73.66 -6.47,25.71 -20.85,60.1 -43.22,102.92 11.61,6.4 22.96,13.29 33.99,20.66z"/>
  <path class="fil0" d="M920.67 1874.92c-122.64,-30.89 -212.18,-56.92 -269.08,-78.09 -56.92,-21.17 -93.97,-41.03 -110.74,-59.54 -16.74,-18.52 -25.13,-37.5 -25.13,-56.9 0,-21.19 8.82,-41.03 26.03,-59.11 17.18,-18.08 42.78,-34.85 77.19,-50.75l-22.51 -14.53c-55.59,15.87 -99.26,33.95 -131.44,54.68 -32.21,20.73 -55.15,43.24 -68.83,67.06 -13.66,23.82 -20.73,48.95 -20.73,75.42 0,32.64 11.91,62.2 35.29,89.1 23.38,26.93 67.06,52.94 131.03,78.09 63.95,25.13 156.14,52.06 277.01,80.28 97.93,22.07 173.37,44.99 225.87,69.27 52.5,24.26 88.67,50.73 108.96,78.94 20.29,28.24 30.43,59.55 30.43,93.97 0,51.16 -15.43,94.84 -46.32,131.47 -30.87,36.6 -77.19,65.28 -139.39,85.58 -62.2,20.27 -139.83,30.43 -232.48,30.43 -169.38,0 -291.13,-27.81 -365.23,-83.37 -74.11,-55.59 -111.17,-127.04 -111.17,-214.4 0,-64.41 30.89,-121.31 92.63,-170.72 61.76,-49.39 153.98,-82.05 276.6,-97.93l-19.86 -27.78c-176.43,24.69 -300.82,67.03 -373.18,127.04 -72.33,59.98 -108.53,127.04 -108.53,201.15 0,59.11 20.73,112.05 62.2,159.25 41.47,47.2 105.44,84.68 191.89,112.48 86.48,27.78 197.63,41.9 333.5,41.9 187.05,0 331.28,-32.21 432.75,-96.62 101.45,-64.41 152.18,-147.34 152.18,-248.79 0,-50.29 -11.91,-94.84 -35.73,-133.65 -23.82,-38.82 -65.28,-73.23 -124.83,-103.23 -59.55,-29.99 -142.48,-56.9 -248.35,-80.72zm308.34 -746.39c0,-85.58 -21.17,-162.77 -63.94,-231.61 -94.74,-152.28 -258.36,-222.32 -433.63,-222.32 -101.48,0 -191.01,20.29 -268.65,60.88 -77.63,40.59 -138.08,96.59 -181.75,168.51 -43.68,71.89 -65.72,154.82 -65.72,248.35 0,84.7 21.61,161 64.84,229.39 43.24,68.37 102.35,122.62 177.33,162.34 74.98,39.69 160.56,59.55 256.74,59.55 97.05,0 184.82,-20.3 262.91,-60.45 78.07,-40.13 139.39,-95.71 184.38,-167.17 45.02,-71.48 67.49,-153.95 67.49,-247.48zm-538.6 -403.64c105.87,-1.75 191.45,37.5 256.74,118.22 65.28,80.74 100.14,187.05 104.53,318.5 4.43,117.35 -20.29,211.31 -74.54,281.87 -54.25,70.58 -129.69,106.77 -225.87,108.52 -67.93,0.9 -128.36,-17.21 -181.73,-54.25 -53.37,-37.07 -95.71,-88.67 -126.6,-154.39 -30.87,-65.74 -48.08,-141.17 -51.6,-226.74 -2.65,-78.53 7.92,-146.9 31.74,-205.14 23.82,-58.21 58.67,-103.66 104.56,-136.3 45.86,-32.64 100.13,-49.39 162.77,-50.29z"/>
  <path class="fil0" d="M2043.09 1786.37l0 -109.91 -2.27 -6.8 0 -703.67c0,-9.07 -1.51,-16.24 -4.91,-21.15 -3.4,-4.91 -9.82,-7.17 -18.89,-7.17l-98.58 -1.14c-7.55,-0.76 -12.84,-2.64 -15.86,-5.29 -3.02,-2.64 -4.53,-5.66 -4.53,-9.44 0,-5.29 1.89,-9.44 5.29,-12.47 3.4,-3.02 9.07,-6.04 17.37,-9.07l190.37 -58.92c12.09,-3.78 21.91,-6.8 29.46,-8.69 7.55,-1.89 13.97,-2.65 19.26,-2.65 9.82,0 17,2.65 21.15,7.93 4.16,5.29 6.04,12.46 6.04,21.53l0 904.23c0,12.84 3.4,23.04 10.2,30.6 6.8,7.55 16.62,12.84 29.46,15.86l70.25 11.33c8.31,1.51 14.73,3.78 18.88,6.8 4.16,3.02 6.04,7.55 6.04,13.6 0,4.53 -2.27,8.31 -6.8,11.71 -4.53,3.4 -10.95,5.29 -19.26,5.29l-189.23 0c-20.4,0 -35.88,-6.04 -46.84,-17.75 -10.96,-11.71 -16.62,-29.84 -16.62,-54.77zm-670.81 -220.96l0 -599.42c0,-9.07 -1.89,-16.24 -5.67,-21.15 -3.78,-4.91 -10.58,-7.17 -20.4,-7.17l-97.45 -1.14c-7.55,-0.76 -12.84,-2.64 -16.24,-5.29 -3.4,-2.64 -5.29,-5.66 -5.29,-9.44 0,-5.29 1.89,-9.44 5.29,-12.47 3.4,-3.02 9.44,-6.04 18.51,-9.07l191.5 -58.92c12.09,-4.53 21.91,-7.55 29.46,-9.07 7.55,-1.51 13.6,-2.27 18.13,-2.27 9.82,0 16.99,2.65 21.53,7.93 4.53,5.29 6.8,12.46 6.8,21.53l0 686.67c0,85.36 20.78,148.44 62.32,189.61 41.55,41.17 95.94,61.94 163.17,61.94 41.55,0 85.36,-10.2 131.07,-30.59 45.7,-20.4 94.8,-53.63 147.68,-99.72l44.19 -39.66 22.66 22.66 -45.33 40.79c-79.32,71.01 -148.06,120.11 -206.6,147.31 -58.54,27.2 -116.33,40.79 -172.99,40.79 -86.12,0 -156.37,-27.2 -210.76,-81.21 -54.39,-54.01 -81.59,-131.44 -81.59,-232.67z"/>
  <path id="_1" class="fil0" d="M2834.03 819.82c98.96,0 186.96,22.66 263.64,67.99 76.68,45.33 136.73,108.02 180.54,188.1 43.81,80.07 65.72,172.61 65.72,277.61 0,103.49 -21.91,194.89 -66.1,274.21 -44.19,79.32 -105,141.64 -182.44,186.97 -77.43,45.32 -166.94,67.98 -268.17,67.98 -98.96,0 -186.21,-22.66 -262.13,-67.61 -75.92,-44.95 -135.98,-107.27 -179.79,-186.96 -43.81,-79.7 -65.72,-171.48 -65.72,-275.73 0,-104.25 21.91,-196.41 65.35,-276.1 43.43,-79.69 103.49,-142.39 180.54,-188.1 77.05,-45.7 166.57,-68.36 268.55,-68.36zm64.59 1014.14c70.25,-7.55 129.18,-33.61 176.39,-78.18 47.22,-44.57 80.45,-104.63 100.09,-180.17 19.64,-75.54 23.04,-163.92 10.2,-265.15 -12.09,-102.74 -37.39,-188.48 -75.92,-257.22 -38.53,-68.74 -87.25,-118.98 -146.17,-150.71 -58.92,-31.73 -125.02,-43.43 -198.3,-35.12 -72.52,7.55 -132.2,33.99 -179.03,79.32 -46.84,45.33 -79.7,105.76 -98.58,181.3 -18.89,75.54 -21.91,163.55 -9.07,264.02 12.09,100.47 37.77,185.07 77.05,253.82 39.28,68.74 88.38,119.36 147.31,151.84 58.92,32.48 124.26,44.57 196.03,36.26z"/>
  <path id="_2" class="fil0" d="M3620.44 1305.93c0,-105 15.11,-193.77 45.33,-266.28 30.22,-72.52 69.12,-127.29 116.71,-164.31 47.59,-37.02 97.07,-55.52 148.44,-55.52 58.17,0 103.49,15.86 135.97,47.59 32.48,31.73 48.73,73.65 48.73,125.78 0,33.99 -7.55,60.06 -22.66,78.19 -15.11,18.13 -34.37,27.2 -57.79,27.2 -23.41,0 -41.92,-6.8 -55.9,-20.4 -13.98,-13.6 -21.15,-33.99 -21.15,-61.19l0 -31.73c0,-28.71 -6.42,-49.86 -19.27,-63.46 -12.84,-13.6 -34.37,-20.4 -64.59,-20.4 -36.26,0 -71.76,15.48 -106.89,46.46 -35.12,30.97 -64.21,76.3 -87.25,136.35 -23.04,60.05 -34.75,135.22 -34.75,225.11l-24.93 -3.4zm21.53 -446.45l3.4 333.14 0 569.96c0,12.84 3.78,23.04 10.96,30.59 7.17,7.55 17.75,12.09 32.1,13.6l109.91 13.6c9.07,1.51 15.86,3.78 20.4,6.8 4.53,3.02 6.8,7.55 6.8,13.6 0,5.29 -2.27,9.44 -6.8,12.84 -4.53,3.4 -11.33,5.29 -20.4,5.29l-410.19 0c-8.31,0 -14.73,-1.89 -19.27,-5.29 -4.53,-3.4 -6.8,-7.55 -6.8,-12.84 0,-4.53 2.27,-8.69 6.8,-12.09 4.53,-3.4 10.96,-6.04 19.27,-8.31l71.38 -10.2c12.84,-3.02 22.66,-8.31 29.46,-15.49 6.8,-7.17 10.2,-16.62 10.2,-28.71l0 -801.11c0,-9.07 -1.89,-16.24 -5.67,-21.15 -3.78,-4.91 -10.2,-7.18 -19.26,-7.18l-98.58 -1.13c-6.8,-0.76 -11.71,-2.65 -15.11,-5.29 -3.4,-2.65 -5.29,-6.04 -5.29,-10.58 0,-4.53 1.89,-8.69 5.29,-12.09 3.4,-3.4 9.44,-6.04 18.51,-8.31l189.23 -56.66c13.6,-5.29 24.17,-8.69 31.73,-10.2 7.55,-1.51 13.6,-2.27 18.13,-2.27 7.55,0 13.22,2.27 17,7.18 3.78,4.91 6.04,12.46 6.8,22.28z"/>
  <path id="_3" class="fil0" d="M4340 1305.93c0,-105 15.11,-193.77 45.33,-266.28 30.22,-72.52 69.12,-127.29 116.71,-164.31 47.59,-37.02 97.07,-55.52 148.44,-55.52 58.17,0 103.49,15.86 135.97,47.59 32.48,31.73 48.73,73.65 48.73,125.78 0,33.99 -7.55,60.06 -22.66,78.19 -15.11,18.13 -34.37,27.2 -57.79,27.2 -23.41,0 -41.92,-6.8 -55.9,-20.4 -13.98,-13.6 -21.15,-33.99 -21.15,-61.19l0 -31.73c0,-28.71 -6.42,-49.86 -19.27,-63.46 -12.84,-13.6 -34.37,-20.4 -64.59,-20.4 -36.26,0 -71.76,15.48 -106.89,46.46 -35.12,30.97 -64.21,76.3 -87.25,136.35 -23.04,60.05 -34.75,135.22 -34.75,225.11l-24.93 -3.4zm21.53 -446.45l3.4 333.14 0 569.96c0,12.84 3.78,23.04 10.96,30.59 7.17,7.55 17.75,12.09 32.1,13.6l109.91 13.6c9.07,1.51 15.86,3.78 20.4,6.8 4.53,3.02 6.8,7.55 6.8,13.6 0,5.29 -2.27,9.44 -6.8,12.84 -4.53,3.4 -11.33,5.29 -20.4,5.29l-410.19 0c-8.31,0 -14.73,-1.89 -19.27,-5.29 -4.53,-3.4 -6.8,-7.55 -6.8,-12.84 0,-4.53 2.27,-8.69 6.8,-12.09 4.53,-3.4 10.96,-6.04 19.27,-8.31l71.38 -10.2c12.84,-3.02 22.66,-8.31 29.46,-15.49 6.8,-7.17 10.2,-16.62 10.2,-28.71l0 -801.11c0,-9.07 -1.89,-16.24 -5.67,-21.15 -3.78,-4.91 -10.2,-7.18 -19.26,-7.18l-98.58 -1.13c-6.8,-0.76 -11.71,-2.65 -15.11,-5.29 -3.4,-2.65 -5.29,-6.04 -5.29,-10.58 0,-4.53 1.89,-8.69 5.29,-12.09 3.4,-3.4 9.44,-6.04 18.51,-8.31l189.23 -56.66c13.6,-5.29 24.17,-8.69 31.73,-10.2 7.55,-1.51 13.6,-2.27 18.13,-2.27 7.55,0 13.22,2.27 17,7.18 3.78,4.91 6.04,12.46 6.8,22.28z"/>
  <path id="_4" class="fil0" d="M5315.64 819.82c98.96,0 186.96,22.66 263.64,67.99 76.68,45.33 136.73,108.02 180.54,188.1 43.81,80.07 65.72,172.61 65.72,277.61 0,103.49 -21.91,194.89 -66.1,274.21 -44.19,79.32 -105,141.64 -182.44,186.97 -77.43,45.32 -166.94,67.98 -268.17,67.98 -98.96,0 -186.21,-22.66 -262.13,-67.61 -75.92,-44.95 -135.98,-107.27 -179.79,-186.96 -43.81,-79.7 -65.72,-171.48 -65.72,-275.73 0,-104.25 21.91,-196.41 65.35,-276.1 43.43,-79.69 103.49,-142.39 180.54,-188.1 77.05,-45.7 166.57,-68.36 268.55,-68.36zm64.59 1014.14c70.25,-7.55 129.18,-33.61 176.39,-78.18 47.22,-44.57 80.45,-104.63 100.09,-180.17 19.64,-75.54 23.04,-163.92 10.2,-265.15 -12.09,-102.74 -37.39,-188.48 -75.92,-257.22 -38.53,-68.74 -87.25,-118.98 -146.17,-150.71 -58.92,-31.73 -125.02,-43.43 -198.3,-35.12 -72.52,7.55 -132.2,33.99 -179.03,79.32 -46.84,45.33 -79.7,105.76 -98.58,181.3 -18.89,75.54 -21.91,163.55 -9.07,264.02 12.09,100.47 37.77,185.07 77.05,253.82 39.28,68.74 88.38,119.36 147.31,151.84 58.92,32.48 124.26,44.57 196.03,36.26z"/>
  <path id="_5" class="fil0" d="M6250.49 1869.09l-48.72 0c-9.82,0 -18.13,-2.64 -25.31,-7.93 -7.17,-5.29 -12.84,-13.97 -16.62,-26.06l-293.48 -889.5c-7.55,-22.66 -15.86,-38.15 -25.3,-46.08 -9.44,-7.93 -21.91,-12.46 -37.02,-13.97l-48.73 -7.93c-9.07,-1.51 -15.11,-4.15 -18.51,-7.55 -3.4,-3.4 -5.29,-7.17 -5.29,-11.71 0,-6.04 2.27,-10.58 6.8,-13.6 4.53,-3.02 10.58,-4.53 18.13,-4.53l385.26 0c8.31,0 14.73,1.51 18.89,4.53 4.16,3.02 6.04,7.55 6.04,13.6 0,4.53 -1.51,8.31 -4.91,11.71 -3.4,3.4 -10.2,6.04 -20.02,7.55l-57.79 9.07c-30.97,3.78 -49.48,12.47 -55.9,26.44 -6.42,13.98 -4.15,38.15 7.18,72.14l249.28 772.79 -27.2 35.12 276.48 -850.97 40.79 35.12 -284.41 862.31c-3.78,10.58 -9.07,18.13 -16.24,22.66 -7.17,4.53 -15.11,6.8 -23.42,6.8zm637.95 0l-47.59 0c-9.07,0 -17.37,-3.02 -24.93,-8.69 -7.55,-5.66 -13.22,-13.97 -16.99,-25.3l-293.48 -890.63c-6.04,-20.4 -13.22,-34.75 -21.53,-42.68 -8.31,-7.93 -20.02,-12.84 -35.12,-15.11l-48.73 -7.93c-9.07,-2.27 -15.48,-4.91 -19.26,-7.93 -3.78,-3.02 -5.67,-7.17 -5.67,-12.46 0,-12.09 8.31,-18.13 24.93,-18.13l367.13 0c16.62,0 24.93,6.04 24.93,18.13 0,5.29 -1.51,9.44 -4.91,12.84 -3.4,3.4 -10.2,6.04 -20.02,7.55l-65.72 11.33c-21.15,3.02 -33.99,10.95 -38.53,23.79 -4.53,12.84 -2.65,32.86 5.66,60.06l256.09 790.92 -32.86 41.92 256.09 -790.92c14.35,-43.81 18.13,-75.16 10.96,-93.67 -7.18,-18.51 -28.71,-30.22 -64.21,-35.5l-58.92 -9.07c-9.82,-1.51 -16.62,-3.78 -20.4,-6.8 -3.78,-3.02 -5.67,-7.17 -5.67,-12.46 0,-6.04 2.27,-10.58 6.8,-13.6 4.53,-3.02 10.58,-4.53 18.13,-4.53l292.35 0c8.31,0 14.73,1.51 19.26,4.91 4.53,3.4 6.8,7.93 6.8,13.22 0,5.29 -1.51,9.44 -4.91,12.84 -3.4,3.4 -10.2,6.04 -20.02,7.55l-39.66 7.93c-18.13,4.53 -33.24,15.11 -45.7,32.11 -12.46,16.99 -24.92,44.57 -37.01,82.34l-276.48 836.24c-3.78,11.33 -9.07,19.26 -16.24,24.17 -7.17,4.91 -15.48,7.55 -24.55,7.55z"/>
  <polygon class="fil0" points="7382.24,685.12 7628.1,685.12 7628.1,749.78 7545.54,749.78 7545.54,946.69 7464.8,946.69 7464.8,749.78 7382.24,749.78 "/>
  <polygon id="_1_1" class="fil0" points="7663.6,685.12 7770.15,685.12 7810.83,844.28 7851.56,685.12 7957.69,685.12 7957.69,946.69 7891.56,946.69 7891.56,747.29 7840.54,946.69 7780.63,946.69 7729.72,747.29 7729.72,946.69 7663.6,946.69 "/>
  <rect class="fil1" width="8203.93" height="2706.7"/>
 </g>
</svg>
